<?xml version='1.0' encoding='utf-8'?>
<svg xmlns="http://www.w3.org/2000/svg" version="1.1" width="690" height="1125" viewBox="21 20 690 1125">
  <path d="M 0 0 C 0.206 0.137 0.412 0.275 0.619 0.412 C 0.265 0.447 -0.09 0.482 -0.444 0.517 C -0.298 0.345 -0.15 0.174 -0.003 0.004 L 0 0 Z" fill="#FFFFFF" transform="translate(518,20)" stroke="#000000" stroke-width="8" stroke-linejoin="round" stroke-linecap="round" paint-order="stroke fill" />
  <path d="M 3 2 C 2.83 2.816 2.66 3.632 2.484 4.473 C 0.828 12.566 -0.692 20.678 -2.125 28.813 C -2.295 29.766 -2.466 30.72 -2.642 31.702 C -2.804 32.632 -2.966 33.562 -3.133 34.52 C -3.276 35.336 -3.419 36.151 -3.567 36.992 C -4.749 45.206 -5.177 53.328 -5.238 61.622 C -5.248 62.712 -5.258 63.801 -5.268 64.924 C -5.582 97.669 -5.582 97.669 -1 130.001 C -0.56 132.178 -0.12 134.355 0.32 136.532 C 6.127 164.179 16.162 189.413 29.472 214.231 C 32.043 219.042 34.463 223.921 36.874 228.813 C 44.473 244.142 52.827 259.057 61.353 273.886 C 65.332 280.81 69.235 287.775 73.124 294.751 C 77.044 301.78 81.003 308.775 85.124 315.689 C 89.368 322.812 93.326 330.072 97.262 337.369 C 100.985 344.234 104.895 350.97 108.874 357.689 C 116.442 370.527 123.307 383.69 129.999 397.002 C 130.458 397.904 130.916 398.807 131.389 399.737 C 151.997 440.477 166.331 486.479 175.999 531.002 C 176.167 531.141 178.697 538.496 179.29 538.439 C 178.841 539.73 179.558 540.291 179.847 541.471 C 182.452 552.22 184.938 562.995 187.334 573.792 C 187.651 575.218 187.971 576.644 188.292 578.069 C 188.749 580.096 189.197 582.125 189.644 584.155 C 189.905 585.331 190.167 586.506 190.436 587.717 C 191.765 595.47 191.765 595.47 189.999 599.002 C 185.212 599.076 180.425 599.131 175.637 599.167 C 174.008 599.182 172.38 599.203 170.751 599.229 C 168.41 599.265 166.07 599.282 163.729 599.296 C 163.001 599.312 162.273 599.327 161.522 599.343 C 158.761 599.344 156.542 599.295 154.08 597.973 C 152.382 594.879 152.247 591.645 151.967 588.191 C 151.81 586.556 151.653 584.92 151.494 583.285 C 151.415 582.423 151.335 581.56 151.253 580.672 C 150.822 576.172 150.298 571.682 149.779 567.192 C 149.567 565.337 149.354 563.481 149.142 561.626 C 149.036 560.702 148.93 559.777 148.82 558.825 C 148.603 556.931 148.388 555.037 148.174 553.142 C 147.859 550.346 147.538 547.55 147.216 544.755 C 147.123 543.922 147.036 543.089 146.935 542.232 C 145.444 529.586 146.059 530.107 143.622 520.088 C 146.189 519.455 139.643 510.95 141.998 512.005 C 130.215 457.993 111.282 410.186 84.137 362.031 C 82.402 358.945 80.689 355.847 78.978 352.747 C 78.355 351.62 77.732 350.492 77.09 349.331 C 76.461 348.192 75.833 347.053 75.185 345.88 C 74.848 345.27 74.511 344.66 74.164 344.032 C 69.479 335.547 64.844 327.038 60.247 318.505 C 55.768 310.195 51.156 301.974 46.445 293.794 C 41.307 284.852 36.386 275.795 31.475 266.727 C 30.048 264.098 28.612 261.475 27.173 258.852 C 19.336 244.567 11.67 230.194 4.06 215.788 C 1.886 211.675 -0.306 207.573 -2.511 203.477 C -27.608 156.61 -38.763 96.339 -23.471 44.541 C -18.521 28.625 -11.321 13.259 -0.444 0.517 C -0.09 0.482 0.265 0.447 0.619 0.412 C 1.404 0.935 2.193 1.461 3 2 Z" fill="#FFFFFF" transform="translate(518,20)" stroke="#000000" stroke-width="8" stroke-linejoin="round" stroke-linecap="round" paint-order="stroke fill" />
  <path d="M0 0 C1.875 0.125 1.875 0.125 4 1 C10.7565568 10.0087424 8.59902164 24.59467674 7.18041992 35.1640625 C5.37616373 47.23234547 2.73681652 59.11492222 0 71 C-0.24973572 72.08728394 -0.24973572 72.08728394 -0.5045166 73.1965332 C-4.469048 90.45601611 -8.47196088 107.70668354 -12.625 124.921875 C-16.84384679 142.4240287 -20.93046366 159.91876053 -24.46655273 177.57275391 C-25.8388477 184.41330091 -27.2533252 191.23624143 -28.8203125 198.03515625 C-33.26962626 217.37672655 -37.12904789 236.79903403 -40.75 256.3125 C-40.98247437 257.56473358 -41.21494873 258.81696716 -41.45446777 260.10714722 C-42.99050945 268.40102396 -44.50399598 276.69881208 -46 285 C-46.18598755 286.02903442 -46.3719751 287.05806885 -46.56359863 288.11828613 C-48.92941224 301.26127828 -51.00007848 314.42358851 -52.83654785 327.65057373 C-53.56893341 332.91944668 -54.31545731 338.18631309 -55.0625 343.453125 C-55.21785217 344.54889862 -55.37320435 345.64467224 -55.53326416 346.77365112 C-57.36644067 359.65160502 -59.30320726 372.5138095 -61.25 385.375 C-61.49973572 387.02764862 -61.49973572 387.02764862 -61.7545166 388.71368408 C-62.23636982 391.90042364 -62.71939113 395.08698291 -63.203125 398.2734375 C-63.35735931 399.29031143 -63.51159363 400.30718536 -63.67050171 401.35487366 C-64.3560106 405.85458737 -65.05136943 410.35178045 -65.79052734 414.84301758 C-67.79330977 427.03985105 -69.32561177 439.27254355 -70.73486328 451.55151367 C-71.12418953 454.93046599 -71.52467472 458.30797521 -71.92578125 461.68554688 C-73.45487558 474.78679557 -74.55146381 487.81657211 -75 501 C-69.21176256 502.3743572 -63.47927246 503.43815073 -57.57421875 504.1484375 C-56.79723129 504.24560562 -56.02024384 504.34277374 -55.2197113 504.44288635 C-53.56475319 504.64970598 -51.90958045 504.85481453 -50.25421143 505.05831909 C-45.87756945 505.59830927 -41.50344551 506.15812137 -37.12890625 506.71484375 C-35.38558881 506.9361091 -33.64226216 507.15730192 -31.89892578 507.37841797 C-31.06838684 507.48385925 -30.2378479 507.58930054 -29.38214111 507.69793701 C-27.87223562 507.88939778 -26.3622733 508.0804113 -24.85223389 508.27081299 C-3.10695876 511.01586355 18.68759618 514.19305327 38.8828125 523.09130859 C42.34718609 524.57820879 45.85997173 525.94136113 49.36669922 527.32470703 C70.25514785 535.57657197 90.97381701 544.25977797 111.5 553.375 C112.62108154 553.87233643 113.74216309 554.36967285 114.8972168 554.88208008 C119.45259152 556.91609034 123.98932814 558.96250815 128.44921875 561.19921875 C138.2234703 566.09251202 147.34847667 567.99778536 158.1015625 569.40625 C167.62862809 570.80176383 174.27901688 574.53789636 180.4375 582 C184.68197403 587.75362035 187.70092917 592.32275899 187.40625 599.640625 C185.88305666 608.48686327 178.8754063 615.52506948 171.82421875 620.55078125 C169.26590867 622.14596283 166.65960329 623.57945074 164 625 C163.37963867 625.34659668 162.75927734 625.69319336 162.12011719 626.05029297 C160.05053995 627.20331476 157.96572773 628.32334945 155.875 629.4375 C155.21822266 629.80423828 154.56144531 630.17097656 153.88476562 630.54882812 C148.80705254 633.17138323 145.58206392 633.30820374 140 632 C136.42230756 629.13784605 134.17615824 626.00871255 132 622 C133.625 621.3125 133.625 621.3125 136 621 C137.3921875 621.7425 137.3921875 621.7425 138.8125 622.5 C142.88380908 624.41591015 144.68243174 624.19105331 149 623 C151.83196712 621.54618482 154.42739534 619.87144378 157 618 C158.24136719 617.09894531 158.24136719 617.09894531 159.5078125 616.1796875 C162.21749786 613.8097746 163.86843794 611.49711972 165.75 608.4375 C166.34296875 607.48746094 166.9359375 606.53742187 167.546875 605.55859375 C169.99345939 601.25076371 170.26779272 597.90953313 170 593 C168.01607489 590.60148679 168.01607489 590.60148679 164.1875 590.5625 C159.83475302 590.62558329 156.50540767 591.84242801 152.5 593.5 C146.92759745 595.7995143 142.99481124 596.78620475 137 596 C134.89678455 592.84517682 134.69650617 591.68936829 134.4296875 588.03515625 C134.336875 587.07029297 134.2440625 586.10542969 134.1484375 585.11132812 C133.96666879 583.08460696 133.8076649 581.05571071 133.671875 579.02539062 C133.2660392 573.76306585 133.2660392 573.76306585 130.44580078 569.56030273 C128.33558723 568.47818946 126.25560988 567.73014646 124 567 C122.43655943 566.35092117 120.87676498 565.69300541 119.3203125 565.02734375 C117.58959378 564.32811931 115.85776075 563.63164861 114.125 562.9375 C105.86387904 559.5937296 97.63920315 556.1744105 89.4375 552.6875 C61.83132801 540.95843312 61.83132801 540.95843312 33.9375 529.9375 C33.00534668 529.57962402 32.07319336 529.22174805 31.11279297 528.85302734 C20.43686013 524.86229403 10.55933732 522.53179505 -0.87109375 522.77734375 C-1.95528091 522.78633194 -3.03946808 522.79532013 -4.1565094 522.80458069 C-7.58385219 522.83428795 -11.01045227 522.88400911 -14.4375 522.9375 C-46.38250225 523.387175 -46.38250225 523.387175 -61.8125 518.5625 C-62.49763672 518.35818359 -63.18277344 518.15386719 -63.88867188 517.94335938 C-67.3902327 516.88197975 -70.83036062 515.71249566 -74.25268555 514.41772461 C-74.95870407 514.15116562 -75.6647226 513.88460663 -76.39213562 513.60997009 C-76.92273087 513.40867996 -77.45332611 513.20738983 -78 513 C-80.11688712 547.61136992 -80.11688712 547.61136992 -81.6875 582.25 C-81.72351318 583.21639404 -81.75952637 584.18278809 -81.79663086 585.1784668 C-82.45100795 606.24089678 -81.93662251 627.32117849 -81.25 648.375 C-81.20909241 649.66807068 -81.16818481 650.96114136 -81.1260376 652.293396 C-80.39701771 675.05378233 -79.0471039 697.73991917 -77.32128906 720.44677734 C-76.55913923 730.55438173 -75.80862774 740.66900198 -75.5703125 750.8046875 C-75.53549774 751.55775177 -75.50068298 752.31081604 -75.46481323 753.08670044 C-75.43007548 756.95273961 -75.94840978 759.41251622 -78.33544922 762.38720703 C-81.13331733 765.1307277 -83.28913565 766.73672703 -87 768 C-89.97126212 767.32085437 -90.79498371 766.29747009 -92.51586914 763.80053711 C-97.31070078 754.75274738 -97.68176109 743.06852037 -98.82543945 733.01049805 C-99.05656602 730.98939024 -99.30183381 728.97039367 -99.54882812 726.95117188 C-102.55509417 701.67043797 -103.40516383 676.39036726 -103.37735748 650.96072006 C-103.37496126 648.5230938 -103.37607922 646.08548449 -103.37738037 643.64785767 C-103.37456733 618.94789031 -102.60812597 594.34202169 -101.125 569.6875 C-101.08137077 568.96036427 -101.03774155 568.23322853 -100.99279022 567.48405838 C-100.08615553 552.48206525 -99.07876752 537.48808504 -97.60305786 522.52970886 C-97.17709688 518.02968783 -96.88374176 513.53727349 -96.75830078 509.01831055 C-96.73132111 508.11847946 -96.70434143 507.21864838 -96.67654419 506.29154968 C-96.79465604 503.60246037 -96.79465604 503.60246037 -100 501.5 C-101.485 500.7575 -101.485 500.7575 -103 500 C-103 499.01 -103 498.02 -103 497 C-100.3333581 495.66667905 -98.83319697 496.32897967 -96 497 C-95.90090332 495.99404785 -95.80180664 494.9880957 -95.69970703 493.95166016 C-92.23450494 459.16104138 -87.55045978 424.55590459 -82.77383423 389.92683411 C-81.58851386 381.32842064 -80.42578298 372.72765309 -79.30078125 364.12109375 C-75.09574972 332.07194387 -69.99802569 300.12981824 -63.63452148 268.43310547 C-62.66265222 263.58317735 -61.7814338 258.72917629 -60.98930359 253.84713745 C-59.2329041 243.02371046 -57.10212795 232.2978272 -54.875 221.5625 C-54.47980273 219.64700932 -54.08478715 217.73148114 -53.68994141 215.81591797 C-52.87248929 211.8544856 -52.05248063 207.89359411 -51.23046875 203.93310547 C-50.42289862 200.04209302 -49.61809295 196.15052967 -48.81640625 192.25830078 C-43.10505901 164.53371808 -37.06638775 136.93915577 -30.13037109 109.49072266 C-28.50787486 103.06929391 -26.95297493 96.63496224 -25.4375 90.1875 C-23.71528425 82.8781515 -21.87425839 75.61007035 -19.94067383 68.35400391 C-18.27898298 62.10388978 -16.68953602 55.83759966 -15.125 49.5625 C-14.8777417 48.57531982 -14.6304834 47.58813965 -14.37573242 46.57104492 C-12.95778459 40.89609156 -11.56827797 35.2152375 -10.203125 29.52734375 C-9.89874512 28.27429443 -9.59436523 27.02124512 -9.28076172 25.73022461 C-8.69113744 23.30195793 -8.10903386 20.87184869 -7.53564453 18.43969727 C-4.01255604 4.01255604 -4.01255604 4.01255604 0 0 Z " fill="#FFFFFF" transform="translate(461,78)" stroke="#000000" stroke-width="8" stroke-linejoin="round" stroke-linecap="round" paint-order="stroke fill" />
  <path d="M0 0 C0.99 0.99 0.99 0.99 2 2 C1.59796349 9.34646858 -1.39035122 16.68708769 -3.8125 23.5625 C-4.19994385 24.67020752 -4.5873877 25.77791504 -4.98657227 26.91918945 C-15.34270545 56.13101602 -27.15529364 84.78744446 -41.1953125 112.421875 C-43.57144669 117.11065282 -45.81259974 121.84610605 -48 126.625 C-52.33238839 135.99299848 -57.32023879 144.99428885 -62.33642578 154.00976562 C-64.06256498 157.11245903 -65.77934564 160.22022713 -67.49609375 163.328125 C-73.95449706 174.98036774 -80.61140672 186.46185113 -87.63476562 197.78125 C-90.08778985 201.76785303 -92.47653332 205.79293067 -94.875 209.8125 C-102.51172891 222.57772493 -110.25373884 235.28622584 -118.375 247.75 C-131.76559432 268.45353881 -144.25655887 289.80174286 -155 312 C-155.29616211 312.60634277 -155.59232422 313.21268555 -155.89746094 313.83740234 C-158.01571251 318.18843748 -160.04126497 322.57490517 -162 327 C-162.3196875 327.72074707 -162.639375 328.44149414 -162.96875 329.18408203 C-182.93694102 374.8827692 -189.01688253 427.27756721 -173 475 C-173.99 475.66 -174.98 476.32 -176 477 C-179.2478077 473.21929259 -181.62230064 469.26388759 -183.8125 464.8125 C-184.15506836 464.11761475 -184.49763672 463.42272949 -184.85058594 462.70678711 C-201.75026647 427.75871504 -206.48165499 387.57415387 -195 350 C-193.02252413 344.56482566 -190.57324868 339.36012969 -188.04248047 334.16455078 C-187.0442642 332.09190782 -186.09466496 330.00435657 -185.16015625 327.90234375 C-179.99476485 316.39046692 -173.78699704 305.50687859 -167.48632812 294.58496094 C-166.21185467 292.36844895 -164.95181368 290.1451587 -163.703125 287.9140625 C-159.10741259 279.73369441 -154.16599117 271.82671579 -149 264 C-148.55140625 263.31953613 -148.1028125 262.63907227 -147.640625 261.93798828 C-142.14878949 253.62291178 -136.57733658 245.36496452 -130.93359375 237.15234375 C-124.13943458 227.24251569 -117.4651783 217.25513924 -110.8125 207.25 C-109.70388814 205.58456079 -108.5951643 203.91919612 -107.48632812 202.25390625 C-105.85901467 199.80987986 -104.23199335 197.3656626 -102.60610962 194.92068481 C-100.12041018 191.18278911 -97.63159627 187.44709901 -95.13232422 183.71826172 C-94.68314133 183.04728455 -94.23395844 182.37630737 -93.77116394 181.68499756 C-92.9482898 180.45633353 -92.12428157 179.22842774 -91.29878235 178.00152588 C-87.77117887 172.73081653 -84.47585824 167.32847803 -81.2734375 161.85546875 C-79.73716818 159.24061312 -78.17859096 156.64125064 -76.6015625 154.05078125 C-52.67339492 114.4867611 -40.78929285 72.19922055 -35.1875 26.5390625 C-34.99619507 24.98493652 -34.99619507 24.98493652 -34.80102539 23.39941406 C-34.56571027 21.44166814 -34.34028154 19.48269793 -34.12670898 17.52246094 C-32.73039265 5.73039265 -32.73039265 5.73039265 -29 2 C-27.28192127 1.77183524 -25.55561413 1.6049687 -23.828125 1.46484375 C-22.77109375 1.37783203 -21.7140625 1.29082031 -20.625 1.20117188 C-18.954375 1.0706543 -18.954375 1.0706543 -17.25 0.9375 C-15.60257813 0.80118164 -15.60257813 0.80118164 -13.921875 0.66210938 C-3.14140156 -0.2079167 -3.14140156 -0.2079167 0 0 Z " fill="#FFFFFF" transform="translate(709,668)" stroke="#000000" stroke-width="8" stroke-linejoin="round" stroke-linecap="round" paint-order="stroke fill" />
  <path d="M0 0 C1.921875 0.25 1.921875 0.25 4 1 C12.46206416 12.28275221 17.91467373 26.13977107 20 40 C20.12890625 40.75667969 20.2578125 41.51335938 20.390625 42.29296875 C22.48466872 56.09712536 20.83321762 72.16881968 13 84 C8.17392395 89.9397859 2.78655349 91.07922273 -4.51757812 91.88769531 C-5.31615234 91.96600586 -6.11472656 92.04431641 -6.9375 92.125 C-7.78376953 92.2084668 -8.63003906 92.29193359 -9.50195312 92.37792969 C-46.31893883 95.78176422 -82.86328129 87.97214747 -117.7734375 76.859375 C-123.17536874 75.18196559 -128.45992463 73.99988998 -134.0625 73.25 C-134.95098633 73.12931152 -135.83947266 73.00862305 -136.75488281 72.88427734 C-156.59600292 70.40676552 -175.08293708 72.07436209 -193.828125 79.01171875 C-196.78149391 79.93191867 -198.93919954 80.21287522 -202 80 C-201.81148578 76.22298302 -201.14360052 75.1309421 -198.296875 72.53515625 C-197.12774635 71.6923702 -195.94441682 70.86904733 -194.75 70.0625 C-193.80543945 69.41172485 -193.80543945 69.41172485 -192.84179688 68.74780273 C-173.43695631 55.71654907 -151.29996833 53.16148021 -128.51025391 57.03051758 C-114.54265029 59.77971939 -100.95012975 64.4161312 -87.44140625 68.83740234 C-75.92331719 72.60569563 -64.28645919 75.38045729 -52.4375 77.875 C-51.7043457 78.0325174 -50.97119141 78.19003479 -50.21582031 78.35232544 C-33.54217778 81.90898581 -21.11447179 82.12008442 -6.2890625 72.68359375 C0.9278795 67.37556986 5.31581095 60.82713201 7 52 C8.92539127 34.22745974 4.76315633 17.68084361 -1 1 C-0.67 0.67 -0.34 0.34 0 0 Z " fill="#FFFFFF" transform="translate(241,553)" stroke="#000000" stroke-width="8" stroke-linejoin="round" stroke-linecap="round" paint-order="stroke fill" />
  <path d="M0 0 C0 0.99 0 1.98 0 3 C-2.1171875 5.04296875 -2.1171875 5.04296875 -4.875 7.1875 C-5.77992188 7.90292969 -6.68484375 8.61835937 -7.6171875 9.35546875 C-10 11 -10 11 -12 11 C-12.37125 11.7734375 -12.37125 11.7734375 -12.75 12.5625 C-14.09439219 15.18406477 -15.57807521 17.69567204 -17.09765625 20.21875 C-22.27186545 30.43277335 -18.47024377 44.28419062 -15.18554688 54.54394531 C-9.07465341 72.7793185 -1.60357674 89.39154531 10.859375 104.2109375 C11.23578125 104.80132813 11.6121875 105.39171875 12 106 C11.505 107.485 11.505 107.485 11 109 C7.30067035 107.71169021 4.86040021 106.25695508 2.0390625 103.55078125 C1.31976563 102.86693359 0.60046875 102.18308594 -0.140625 101.47851562 C-0.87796875 100.76373047 -1.6153125 100.04894531 -2.375 99.3125 C-3.10460937 98.61705078 -3.83421875 97.92160156 -4.5859375 97.20507812 C-8.02709305 93.91447314 -11.40922822 90.58318864 -14.7265625 87.16796875 C-19.67656529 82.246868 -23.13350598 80.55762343 -30.25 80.5 C-39.41100949 80.60242772 -47.42151394 83.02814033 -56 86 C-57.81596712 86.61795592 -59.63194644 87.23587623 -61.44813538 87.85317993 C-68.399409 90.21842758 -75.33670347 92.6220628 -82.26708984 95.04785156 C-84.17342592 95.71202082 -86.08487227 96.36162409 -88 97 C-88.66 96.01 -89.32 95.02 -90 94 C-84.21762622 90.18613685 -78.27050036 87.05602294 -72 84.125 C-70.6234021 83.47591675 -70.6234021 83.47591675 -69.21899414 82.8137207 C-57.99519556 77.5486324 -46.64542205 72.61361704 -35.16015625 67.9453125 C-33.06195474 67.18339175 -33.06195474 67.18339175 -32 66 C-31.60363633 60.25272686 -32.27331154 55.31753712 -33.5 49.6875 C-36.09873793 37.3125575 -36.12511819 26.30179146 -29.3125 15.3125 C-22.8281615 6.27275716 -11.77072398 -2.94268099 0 0 Z " fill="#FFFFFF" transform="translate(157,507)" stroke="#000000" stroke-width="8" stroke-linejoin="round" stroke-linecap="round" paint-order="stroke fill" />
  <path d="M0 0 C6.11488447 -0.46031738 6.11488447 -0.46031738 8.84741211 1.41162109 C11.49502269 4.37026902 13.24024807 7.28920611 13.14819336 11.24755859 C10.04646747 22.78138376 -0.25978402 31.80986329 -9.85180664 38.24755859 C-13.43039014 40.18739765 -17.05496744 41.7867809 -20.85180664 43.24755859 C-21.94493164 43.68068359 -23.03805664 44.11380859 -24.16430664 44.56005859 C-34.47220639 46.48187041 -43.13431575 45.24557535 -53.10180664 42.43505859 C-54.03138184 42.17466797 -54.96095703 41.91427734 -55.91870117 41.64599609 C-62.59081339 39.63904847 -62.59081339 39.63904847 -64.85180664 36.24755859 C-62.85180664 34.24755859 -62.85180664 34.24755859 -59.64648438 34.08398438 C-58.27591789 34.11146244 -56.90552184 34.14843282 -55.53540039 34.19287109 C-54.033457 34.21819493 -52.53150333 34.24291447 -51.02954102 34.26708984 C-48.66845408 34.31641651 -46.30790752 34.37202731 -43.94726562 34.43945312 C-30.26776428 34.87572752 -30.26776428 34.87572752 -18.21655273 28.97583008 C-15.19756633 25.98111537 -14.56489648 23.44774054 -14.53930664 19.37255859 C-14.61881589 17.99591268 -14.71459698 16.61965524 -14.85180664 15.24755859 C-22.8225819 13.42966248 -30.8322205 11.83245704 -38.85180664 10.24755859 C-39.18180664 8.92755859 -39.51180664 7.60755859 -39.85180664 6.24755859 C-36.78579812 4.20355292 -35.46214134 3.87104998 -31.91430664 3.43115234 C-30.9359082 3.30675781 -29.95750977 3.18236328 -28.94946289 3.05419922 C-27.41612305 2.87147461 -27.41612305 2.87147461 -25.85180664 2.68505859 C-24.86051758 2.559375 -23.86922852 2.43369141 -22.84790039 2.30419922 C-15.24552975 1.35761982 -7.6311196 0.66243946 0 0 Z " fill="#FFFFFF" transform="translate(332.851806640625,632.75244140625)" stroke="#000000" stroke-width="8" stroke-linejoin="round" stroke-linecap="round" paint-order="stroke fill" />
  <path d="M0 0 C0.91562714 -0.00571014 1.83125427 -0.01142029 2.77462769 -0.01730347 C3.78712082 -0.01842133 4.79961395 -0.01953918 5.8427887 -0.02069092 C7.43289764 -0.02813828 7.43289764 -0.02813828 9.05513 -0.03573608 C12.57883847 -0.05039945 16.10250194 -0.0571662 19.62623596 -0.06268311 C22.06382245 -0.06843056 24.50140892 -0.07418833 26.93899536 -0.07995605 C32.05617993 -0.09047756 37.17334873 -0.09631288 42.2905426 -0.09979248 C48.86284752 -0.10528347 55.4349459 -0.12931974 62.00718594 -0.15776443 C67.04362608 -0.17634273 72.08001598 -0.18159382 77.1164875 -0.18312836 C79.54030043 -0.18616567 81.96411225 -0.19423013 84.38789177 -0.20731354 C87.77145711 -0.22427567 91.15451118 -0.22251797 94.5381012 -0.21600342 C95.5485701 -0.2252182 96.559039 -0.23443298 97.60012817 -0.243927 C98.97779861 -0.23557327 98.97779861 -0.23557327 100.38330078 -0.22705078 C101.18396186 -0.22851734 101.98462294 -0.2299839 102.80954647 -0.2314949 C103.45159307 -0.10875576 104.09363966 0.01398338 104.75514221 0.14044189 C105.74514221 1.62544189 105.74514221 1.62544189 106.75514221 3.14044189 C104.07177403 5.82381007 102.11166491 5.76956182 98.37623596 6.35919189 C97.73130692 6.46259888 97.08637787 6.56600586 96.42190552 6.67254639 C95.04636833 6.89144406 93.67019547 7.10637773 92.29347229 7.31768799 C90.25122209 7.63144217 88.21116039 7.95696005 86.17115784 8.28497314 C82.03780892 8.94178116 77.89903635 9.55401347 73.75514221 10.14044189 C73.06180786 10.23867249 72.36847351 10.33690308 71.65412903 10.43811035 C61.57765914 11.83066007 51.62533762 12.51330841 41.45289612 12.51104736 C39.25469057 12.5154428 37.05846838 12.5520445 34.86061096 12.58966064 C20.85065764 12.69940604 7.5421714 10.04698118 -5.24485779 4.14044189 C-5.24485779 -0.42663802 -4.1163097 0.01530036 0 0 Z " fill="#FFFFFF" transform="translate(434.24485778808594,649.8595581054688)" stroke="#000000" stroke-width="8" stroke-linejoin="round" stroke-linecap="round" paint-order="stroke fill" />
  <path d="M0 0 C5.15342577 0.42068782 9.83491764 1.4636076 14.8125 2.875 C20.70226057 4.51933417 26.5855069 5.73124186 32.625 6.6875 C33.36339111 6.80657715 34.10178223 6.9256543 34.86254883 7.04833984 C46.2544332 8.76997889 57.68023737 9.19358005 69.1875 9.1875 C71.12459839 9.1884668 71.12459839 9.1884668 73.10083008 9.18945312 C82.88343843 9.13681665 92.57138752 8.6106783 102.3112793 7.71166992 C108.89803746 7.10600961 115.38557521 6.88320329 122 7 C122.495 8.98 122.495 8.98 123 11 C116.94198539 13.15738947 110.93429717 14.82667131 104.625 16.0625 C103.76503418 16.23168945 102.90506836 16.40087891 102.01904297 16.57519531 C76.73302406 21.36564752 51.77011166 21.29560608 27 14 C26.35401855 13.81034668 25.70803711 13.62069336 25.04248047 13.42529297 C16.25034669 10.78919184 8.076354 7.37657172 0 3 C0 2.01 0 1.02 0 0 Z " fill="#FFFFFF" transform="translate(21,679)" stroke="#000000" stroke-width="8" stroke-linejoin="round" stroke-linecap="round" paint-order="stroke fill" />
</svg>